<?xml version="1.0" encoding="UTF-8" standalone="no"?>
<!-- Created with Inkscape (http://www.inkscape.org/) -->

<svg
   version="1.1"
   id="svg1"
   width="454.1496"
   height="82.356308"
   viewBox="0 0 454.1496 82.356308"
   sodipodi:docname="LunaAI_LOGO_LINE+CLASP.svg"
   inkscape:version="1.3 (0e150ed6c4, 2023-07-21)"
   xmlns:inkscape="http://www.inkscape.org/namespaces/inkscape"
   xmlns:sodipodi="http://sodipodi.sourceforge.net/DTD/sodipodi-0.dtd"
   xmlns="http://www.w3.org/2000/svg"
   xmlns:svg="http://www.w3.org/2000/svg">
  <defs
     id="defs1" />
  <sodipodi:namedview
     id="namedview1"
     pagecolor="#ffffff"
     bordercolor="#111111"
     borderopacity="1"
     inkscape:showpageshadow="0"
     inkscape:pageopacity="0"
     inkscape:pagecheckerboard="1"
     inkscape:deskcolor="#d1d1d1"
     inkscape:zoom="2"
     inkscape:cx="254.5"
     inkscape:cy="56.75"
     inkscape:window-width="1920"
     inkscape:window-height="1009"
     inkscape:window-x="-8"
     inkscape:window-y="-8"
     inkscape:window-maximized="1"
     inkscape:current-layer="g1"
     showguides="true"
     inkscape:lockguides="false">
    <sodipodi:guide
       position="519.86217,303.02268"
       orientation="0,-1"
       id="guide2"
       inkscape:locked="false" />
  </sodipodi:namedview>
  <g
     inkscape:groupmode="layer"
     inkscape:label="Image"
     id="g1"
     transform="translate(-70.137825,-119.02268)">
    <path
       style="font-weight:600;font-size:87.311px;font-family:Poppins;-inkscape-font-specification:'Poppins Semi-Bold';fill:#113768;stroke-width:0.909489;fill-opacity:1"
       d="m 220.36892,185.72485 h 20.08153 v 9.69152 h -32.30507 v -60.94308 h 12.22354 z m 73.51583,-38.67878 v 48.3703 H 281.5739 v -6.11177 q -2.3574,3.14319 -6.19908,4.97672 -3.75437,1.74622 -8.20723,1.74622 -5.67522,0 -10.04077,-2.35739 -4.36555,-2.44471 -6.89757,-7.07219 -2.44471,-4.7148 -2.44471,-11.17581 v -28.37608 h 12.22354 v 26.62986 q 0,5.76252 2.88127,8.90572 2.88126,3.05588 7.85799,3.05588 5.06403,0 7.9453,-3.05588 2.88126,-3.1432 2.88126,-8.90572 v -26.62986 z m 38.85333,-0.69848 q 8.64379,0 13.96976,5.50059 5.32597,5.41328 5.32597,15.19211 v 28.37608 H 339.81027 V 168.6992 q 0,-5.76252 -2.88126,-8.81841 -2.88126,-3.1432 -7.85799,-3.1432 -5.06404,0 -8.03261,3.1432 -2.88126,3.05589 -2.88126,8.81841 v 26.71717 h -12.22354 v -48.3703 h 12.22354 v 6.02446 q 2.44471,-3.14319 6.19908,-4.88941 3.84168,-1.83353 8.38185,-1.83353 z m 27.76484,24.70901 q 0,-7.33413 2.88126,-13.00934 2.96858,-5.67521 7.9453,-8.7311 5.06404,-3.05588 11.26312,-3.05588 5.41329,0 9.42959,2.18277 4.10362,2.18278 6.54833,5.50059 v -6.89757 h 12.31085 v 48.3703 h -12.31085 v -7.07219 q -2.3574,3.40512 -6.54833,5.67521 -4.10362,2.18278 -9.5169,2.18278 -6.11177,0 -11.17581,-3.1432 -4.97672,-3.1432 -7.9453,-8.81841 -2.88126,-5.76253 -2.88126,-13.18396 z m 38.0676,0.17462 q 0,-4.45286 -1.74622,-7.59606 -1.74622,-3.2305 -4.7148,-4.88941 -2.96857,-1.74622 -6.3737,-1.74622 -3.40513,0 -6.28639,1.65891 -2.88127,1.65891 -4.7148,4.88941 -1.74622,3.1432 -1.74622,7.50875 0,4.36555 1.74622,7.68337 1.83353,3.2305 4.7148,4.97672 2.96857,1.74622 6.28639,1.74622 3.40513,0 6.3737,-1.65891 2.96858,-1.74622 4.7148,-4.88941 1.74622,-3.23051 1.74622,-7.68337 z m 29.68569,24.79632 q -3.31782,0 -5.5006,-2.00815 -2.09546,-2.09546 -2.09546,-5.15135 0,-3.05588 2.09546,-5.06404 2.18278,-2.09546 5.5006,-2.09546 3.2305,0 5.32597,2.09546 2.09546,2.00816 2.09546,5.06404 0,3.05589 -2.09546,5.15135 -2.09547,2.00815 -5.32597,2.00815 z m 54.6567,-12.22354 h -24.27245 l -4.01631,11.61237 h -12.83472 l 21.91506,-61.03039 h 14.2317 l 21.91506,61.03039 h -12.92203 z m -3.31781,-9.77883 -8.81841,-25.49481 -8.81842,25.49481 z m 40.68688,-39.55188 v 60.94308 h -12.22354 v -60.94308 z"
       id="text1"
       transform="scale(0.97796959,1.0225267)"
       aria-label="Luna.AI" />
    <path
       id="text2-7"
       style="font-size:74.6667px;font-family:'Century Gothic';-inkscape-font-specification:'Century Gothic';fill:#113768;fill-opacity:1"
       d="m 131.50472,119.41681 c -4.6791,0 -8.56221,0.84663 -11.64843,2.53906 -3.08622,1.74223 -5.37581,4.08265 -6.86915,7.01953 -0.84905,1.69811 -1.44814,3.51217 -1.81445,5.43555 h 6.77735 c 0.52907,-2.03772 1.43218,-3.8293 2.72851,-5.36133 2.14045,-2.53866 5.62468,-3.80859 10.45313,-3.80859 4.6791,0 8.18779,1.19465 10.52734,3.58398 1.42421,1.48613 2.40303,3.34877 2.94141,5.58594 h 6.80078 c -0.69387,-3.79674 -2.27055,-7.00432 -4.74024,-9.61719 -3.43466,-3.58399 -8.48603,-5.37695 -15.15625,-5.37695 z" />
    <path
       id="rect1"
       style="fill:#113768;fill-opacity:1;stroke:none;stroke-opacity:1"
       d="M 89.745247 134.41135 C 83.869201 134.41135 79.137825 139.14078 79.137825 145.01682 L 79.137825 156.18479 L 123.77454 156.18479 L 123.77454 151.32346 L 138.79993 151.32346 L 138.79993 156.18479 L 183.43665 156.18479 L 183.43665 145.01682 C 183.43665 139.14078 178.70528 134.41135 172.82923 134.41135 L 89.745247 134.41135 z M 79.137825 159.01291 L 79.137825 190.27268 C 79.137825 196.14872 83.869201 200.87815 89.745247 200.87815 L 172.82923 200.87815 C 178.70528 200.87815 183.43665 196.14872 183.43665 190.27268 L 183.43665 159.01291 L 138.79993 159.01291 L 138.79993 163.87424 L 123.77454 163.87424 L 123.77454 159.01291 L 79.137825 159.01291 z " />
  </g>
</svg>
